<?xml version="1.0" encoding="UTF-8" standalone="no"?>
<!DOCTYPE svg PUBLIC "-//W3C//DTD SVG 1.1//EN" "http://www.w3.org/Graphics/SVG/1.1/DTD/svg11.dtd">
<svg width="100%" height="100%" viewBox="0 0 4790 3513" version="1.1" xmlns="http://www.w3.org/2000/svg" xmlns:xlink="http://www.w3.org/1999/xlink" xml:space="preserve" xmlns:serif="http://www.serif.com/" style="fill-rule:evenodd;clip-rule:evenodd;stroke-linecap:round;stroke-linejoin:round;">
    <g id="Artboard1" transform="matrix(1.01505,0,0,1,1209.93,0)">
        <rect x="-1192" y="0" width="4719" height="3512.04" style="fill:none;"/>
        <g transform="matrix(0.985177,0,0,1,-903.343,-101.107)">
            <g transform="matrix(4.16667,0,0,4.16667,0,0)">
                <g opacity="0.2">
                    <g transform="matrix(1,0,0,1,0,63.972)">
                        <path d="M111.826,389.334L111.862,389.584L111.826,389.334Z" style="fill:white;fill-rule:nonzero;"/>
                    </g>
                </g>
            </g>
            <g transform="matrix(4.16667,0,0,4.16667,0,0)">
                <g opacity="0.2">
                    <g transform="matrix(1,0,0,1,0,62.5276)">
                        <path d="M111.826,390.056L111.861,390.306L111.826,390.056Z" style="fill:white;fill-rule:nonzero;"/>
                    </g>
                </g>
            </g>
            <g transform="matrix(-4.16667,0,0,4.16667,481.816,1346.84)">
                <path d="M-48.347,0L0,0" style="fill:none;fill-rule:nonzero;stroke:rgb(35,31,32);stroke-width:0.83px;"/>
            </g>
            <g transform="matrix(-4.04254,-1.00945,-1.00945,4.04254,500.097,786.198)">
                <path d="M-1.441,-70.639C-1.441,-70.639 19.839,-62.603 13.568,-36.426C7.3,-10.249 1.778,0.068 -1.441,1.17C-4.662,2.269 -23.837,-12.038 -21.216,-22.537C-18.594,-33.035 -13.782,-74.808 -1.441,-70.639" style="fill:none;fill-rule:nonzero;stroke:rgb(35,31,32);stroke-width:0.83px;"/>
            </g>
            <g transform="matrix(-0.670297,4.1124,4.1124,0.670297,618.63,544.45)">
                <path d="M32.494,3.272C32.494,3.272 32.835,14.228 45.679,22.375C45.679,22.375 35.508,28.219 32.494,29.436C28.776,30.932 12.371,38.14 -4.499,21.825C-16.278,10.434 -8.436,-11.443 -8.436,-11.443" style="fill:none;fill-rule:nonzero;stroke:rgb(35,31,32);stroke-width:0.83px;"/>
            </g>
            <g transform="matrix(4.16667,0,0,4.16667,586.967,1195.91)">
                <path d="M0,-65.709C-1.818,-63.334 -2.337,-61.487 -3.114,-59.901C-3.895,-58.319 -17.141,-42.752 -19.215,-39.585C-21.295,-36.417 -30.426,-29.709 -31.42,-26.653C-32.332,-23.854 -37.915,-13.987 -25.967,-5.014C-25.967,-5.014 -14.28,0 -7.531,-11.612" style="fill:none;fill-rule:nonzero;stroke:rgb(35,31,32);stroke-width:0.83px;"/>
            </g>
            <g transform="matrix(4.16667,0,0,4.16667,532.865,918.823)">
                <path d="M0,-31.403C0,-31.403 7.011,-32.195 8.049,-28.236C9.089,-24.278 14.805,-1.585 12.984,0.792" style="fill:none;fill-rule:nonzero;stroke:rgb(35,31,32);stroke-width:0.83px;"/>
            </g>
            <g transform="matrix(-3.67806,-1.95781,-1.95781,3.67806,580.52,872.82)">
                <path d="M-6.926,-37.813C-6.926,-37.813 -17.369,-20.955 -27.944,-11.036C-27.944,-11.036 -19.076,3.251 -6.926,9.718C-6.926,9.718 -6.689,5.957 -3.745,-2.34C-0.797,-10.636 11.091,-34.876 11.091,-34.876" style="fill:none;fill-rule:nonzero;stroke:rgb(35,31,32);stroke-width:0.83px;"/>
            </g>
            <g transform="matrix(4.16667,0,0,4.16667,494.476,1175.02)">
                <path d="M0,106.087C-0.206,103.37 -0.417,101.467 -0.653,100.808C-1.692,97.905 -5.587,74.154 -4.81,68.612C-4.03,63.07 -3.512,48.294 -3.512,43.808C-3.512,39.319 -5.846,30.347 -6.624,24.807C-7.406,19.266 -3.769,0 -3.769,0" style="fill:none;fill-rule:nonzero;stroke:rgb(35,31,32);stroke-width:0.83px;"/>
            </g>
            <g transform="matrix(4.16667,0,0,4.16667,679.999,2290.92)">
                <path d="M0,-129.892L-13.729,-71.59C-13.729,-71.59 -18.655,-30.878 -18.741,-19.769C-18.741,-19.769 -19.687,-6.929 -20.77,0" style="fill:none;fill-rule:nonzero;stroke:rgb(35,31,32);stroke-width:0.83px;"/>
            </g>
            <g transform="matrix(4.16667,0,0,4.16667,704.905,1749.7)">
                <path d="M0,-207.063C0,-207.063 5.713,-189.201 6.753,-185.321C7.79,-181.438 9.607,-159.435 8.568,-156.85C7.532,-154.26 2.857,-149.084 1.559,-145.201C-0.766,-138.254 -14.541,-104.821 -15.32,-97.056C-16.1,-89.291 -2.598,-69.878 0.521,-63.924C3.636,-57.973 8.832,-40.372 7.79,-30.019C6.753,-19.666 -1.038,-12.936 -1.038,-12.936C-1.038,-12.936 -5.979,-3.46 -5.979,0" style="fill:none;fill-rule:nonzero;stroke:rgb(35,31,32);stroke-width:0.83px;"/>
            </g>
            <g transform="matrix(-2.8003,3.08536,3.08536,2.8003,538.775,1146.32)">
                <path d="M-47.658,-21.106C-47.658,-21.106 1.28,-16.236 9.347,-21.106" style="fill:none;fill-rule:nonzero;stroke:rgb(35,31,32);stroke-width:0.83px;"/>
            </g>
            <g transform="matrix(4.16667,0,0,4.16667,508.37,1596.2)">
                <path d="M0,-99.6C0,-99.6 -4.78,-76.396 -0.532,-60.748C-0.532,-60.748 -1.062,-30.525 1.061,-21.352C3.186,-12.18 4.05,0 4.05,0" style="fill:none;fill-rule:nonzero;stroke:rgb(35,31,32);stroke-width:0.83px;"/>
            </g>
            <g transform="matrix(3.75972,1.79601,1.79601,-3.75972,520.436,1555.39)">
                <path d="M-1.915,-11.772C-1.915,-11.772 32.963,8.965 53.539,-11.772" style="fill:none;fill-rule:nonzero;stroke:rgb(35,31,32);stroke-width:0.83px;"/>
            </g>
            <g transform="matrix(4.16667,0,0,4.16667,701.949,1617.05)">
                <path d="M0,316.631C-4.357,292.829 -27.088,226.127 -27.088,226.127C-30.361,214.709 -40.623,183.339 -40.989,182.29C-41.252,181.53 -49.01,175.007 -51.378,171.34C-52.693,169.303 -53.358,161.847 -53.358,161.847C-53.681,160.894 -55.37,149.387 -55.185,147.376C-55.005,145.364 -56.028,130.066 -56.028,130.066C-56.028,130.066 -57.035,59.091 -55.699,43.574C-54.67,31.59 -51.283,9.897 -49.793,0" style="fill:none;fill-rule:nonzero;stroke:rgb(35,31,32);stroke-width:0.83px;"/>
            </g>
            <g transform="matrix(4.16667,0,0,4.16667,593.459,2930.68)">
                <path d="M0,-153.545L8.889,-143.433C16.657,-130.816 21.851,-114.58 25.09,-93.797L39.93,0" style="fill:none;fill-rule:nonzero;stroke:rgb(35,31,32);stroke-width:0.83px;"/>
            </g>
            <g transform="matrix(4.16667,0,0,4.16667,492.529,2504.6)">
                <path d="M0,-217.496C-4.29,-208.452 -11.845,-187.803 -16.297,-176.629C-22.066,-162.162 -50.776,-64.533 -50.745,-63.526C-50.745,-63.526 -52.265,-56.198 -51.595,-53.868C-50.391,-49.671 -44.85,-41.184 -44.817,-40.38L-43.213,-39.481C-42.255,-38.921 -12.796,-25.059 -2.9,-18.491L19.171,0" style="fill:none;fill-rule:nonzero;stroke:rgb(35,31,32);stroke-width:0.83px;"/>
            </g>
            <g transform="matrix(-3.91456,-1.42735,-1.42735,3.91456,381.922,2226.19)">
                <path d="M-28.079,8.078C-9.413,1.007 -6.845,6.793 0.29,8.078" style="fill:none;fill-rule:nonzero;stroke:rgb(35,31,32);stroke-width:0.83px;"/>
            </g>
            <g transform="matrix(3.49783,2.26413,2.26413,-3.49783,712.465,2582.35)">
                <path d="M-0.546,-1.849L6.259,-1.849" style="fill:none;fill-rule:nonzero;stroke:rgb(35,31,32);stroke-width:0.83px;"/>
            </g>
            <g transform="matrix(-1.3505,3.94173,3.94173,1.3505,506.06,2229.48)">
                <path d="M-26.663,-19.049L13.61,-19.049" style="fill:none;fill-rule:nonzero;stroke:rgb(35,31,32);stroke-width:0.83px;"/>
            </g>
            <g transform="matrix(4.16667,0,0,4.16667,611.863,913.651)">
                <path d="M0,201.291C-1.676,193.067 1.953,182.864 3.348,178.891C4.743,174.924 15.621,132.967 15.621,130.697C15.621,128.431 17.019,112.271 17.019,112.271C17.019,112.271 18.691,78.533 17.854,74.564C17.019,70.597 19.249,39.695 20.366,37.994C21.481,36.294 21.762,-0.564 5.857,2.839C5.857,2.839 -13.948,4.259 -4.462,42.529C-4.462,42.529 -1.951,107.735 -1.676,111.423C-1.393,115.105 -7.253,138.92 -6.694,152.812C-6.139,166.703 -13.669,201.575 -15.064,201.855" style="fill:none;fill-rule:nonzero;stroke:rgb(35,31,32);stroke-width:0.83px;"/>
            </g>
            <g transform="matrix(4.16667,0,0,4.16667,548.965,1919.05)">
                <path d="M0,-39.435C-1.397,-39.15 -4.189,-28.072 -5.868,-27.22C-7.545,-26.361 -10.899,-12.722 -10.621,-11.867C-10.34,-11.018 -12.892,-1.565 -12.892,-1.565C-12.892,-1.565 -7.75,0 -6.985,-6.757C-5.734,-17.824 -5.028,-13.859 -5.028,-13.859" style="fill:none;fill-rule:nonzero;stroke:rgb(35,31,32);stroke-width:0.83px;"/>
            </g>
            <g transform="matrix(0.0934773,-4.16562,-4.16562,-0.0934773,677.295,1822.22)">
                <path d="M-14.083,16.078C-14.083,16.078 8.207,14.218 16.406,16.078" style="fill:none;fill-rule:nonzero;stroke:rgb(35,31,32);stroke-width:0.83px;"/>
            </g>
            <g transform="matrix(4.16667,0,0,4.16667,609.002,1951.23)">
                <path d="M0,-17.245C0,-17.245 -0.43,-8.224 -1.429,-5.418C-1.999,-3.823 -5.057,0.303 -5.057,0.303L-25.587,4.337L-28.154,2.575C-28.154,2.575 -28.902,-4.886 -28.154,-5.432C-27.406,-5.977 -24.859,-4.886 -25.041,-3.43C-25.224,-1.975 -20.261,-9.201 -20.08,-13.931C-19.897,-18.662 -19.437,-21.582 -19.437,-21.582" style="fill:none;fill-rule:nonzero;stroke:rgb(35,31,32);stroke-width:0.83px;stroke-linecap:butt;stroke-linejoin:miter;stroke-miterlimit:10;"/>
            </g>
            <g transform="matrix(4.16667,0,0,4.16667,759.833,3326.71)">
                <path d="M0,-95.045C3.15,-76.663 11.213,-45.335 11.399,-44.676C13.872,-35.892 20.265,-29.858 20.096,-23.446C19.949,-17.816 17.21,-15.159 12.553,-14.191L12.337,-14.006C6.226,-13.711 -10.531,-14.039 -17.404,-6.22C-20.425,-4.106 -22.578,-1.071 -25.214,0L-45.125,0C-46.025,-1.373 -45.924,-2.667 -45.506,-3.475C-44.886,-4.672 -43.308,-4.566 -39.066,-6.418C-33.456,-8.219 -12.316,-33.455 -10.391,-49.122L-10.339,-49.545C-9.36,-57.495 -10.666,-73.442 -13.892,-93.687" style="fill:none;fill-rule:nonzero;stroke:rgb(35,31,32);stroke-width:0.83px;stroke-miterlimit:10;"/>
            </g>
            <g transform="matrix(4.16667,0,0,4.16667,730.172,2762.25)">
                <path d="M0,-38.222C0,-38.222 6.567,-34.352 8.502,-32.72C19.885,-23.125 16.66,18.39 13.304,23.232C11.064,27.283 9.748,28.16 9.983,29.487C10.143,30.382 10.84,31.23 12.39,31.772C14.074,30.733 20.66,26.668 22.185,25.278C26.034,21.771 30.49,12.751 30.613,10.21C31.119,-0.189 44.808,-10.114 49.478,-14.067L49.536,-14.344C52.644,-17.947 53.2,-21.721 49.892,-26.28C46.123,-31.47 23.477,-40.305 20.413,-42.742L-10.968,-69.994" style="fill:none;fill-rule:nonzero;stroke:rgb(35,31,32);stroke-width:0.83px;stroke-miterlimit:10;"/>
            </g>
        </g>
        <g transform="matrix(1,0,0,1,34.9738,-99.4901)">
            <g transform="matrix(4.10491,0,0,4.16667,950.098,779.715)">
                <path d="M0,37.296C0,37.296 23.216,27.523 26.824,25.525C30.428,23.526 31.104,20.639 31.104,20.639L31.104,0" style="fill:none;fill-rule:nonzero;stroke:rgb(35,31,32);stroke-width:0.83px;"/>
            </g>
            <g transform="matrix(4.10491,0,0,4.16667,889.847,935.113)">
                <path d="M0,157.166C0.379,150.733 6.728,138.673 8.581,134.809C10.433,130.941 14.036,119.192 14.897,117.92C15.759,116.653 27.262,102.416 29.364,100.077C29.364,100.077 30.922,98.353 31.254,97.663C32.79,94.475 18.141,44.334 18.141,44.334L17.357,35.585C17.357,35.585 16.526,9.552 14.986,1.026C14.938,0.762 14.678,0 14.678,0" style="fill:none;fill-rule:nonzero;stroke:rgb(35,31,32);stroke-width:0.83px;"/>
            </g>
            <g transform="matrix(4.10491,0,0,4.16667,1166.76,1667.81)">
                <path d="M0,337.371C-0.08,336.079 -0.182,334.986 -0.305,334.518C-0.711,332.982 -0.016,330.477 -0.305,329.172C-0.691,327.427 -3.065,324.585 -3.607,322.828C-3.607,322.828 -10.131,283.032 -10.699,272.084C-11.264,261.141 -14.801,242.079 -12.87,219.056L-12.977,208.266C-12.357,181.603 -14.621,176.305 -15.711,165.712C-16.555,157.462 -15.055,132.35 -15.087,131.324C-15.219,127.03 -16.259,116.481 -16.697,109.909C-17.135,103.347 -14.442,24.998 -22.486,0" style="fill:none;fill-rule:nonzero;stroke:rgb(35,31,32);stroke-width:0.83px;"/>
            </g>
            <g transform="matrix(4.10491,0,0,4.16667,889.847,3073.52)">
                <path d="M0,-356.051L-0.028,-355.582L0.125,-346.132C1.312,-320.175 12.084,-275.048 18.815,-249.858C23.355,-232.863 27.352,-212.531 28.739,-197.087C29.44,-189.233 29.697,-182.782 29.57,-179.015C29.197,-167.827 28.869,-139.467 29.783,-125.185L38.118,-81.829L50.376,-13.469L49.132,-7.1C49.132,-7.1 48.157,-5.124 48.32,-4.025C48.482,-2.925 49.212,-0.95 49.132,0" style="fill:none;fill-rule:nonzero;stroke:rgb(35,31,32);stroke-width:0.83px;"/>
            </g>
            <g transform="matrix(4.10491,0,0,4.16667,990.482,1389.81)">
                <path d="M0,-42.127C0,-42.127 -2.698,-10.762 -2.36,-6.871C-2.154,-4.52 -2.379,-4.661 -2.63,0" style="fill:none;fill-rule:nonzero;stroke:rgb(35,31,32);stroke-width:0.83px;"/>
            </g>
            <g transform="matrix(-4.09212,-0.328655,-0.323783,4.15368,952.571,1413.05)">
                <path d="M-81.924,3.236L0.128,3.236" style="fill:none;fill-rule:nonzero;stroke:rgb(35,31,32);stroke-width:0.83px;"/>
            </g>
            <g transform="matrix(4.10485,0.0218465,0.0215226,-4.16661,950.106,934.132)">
                <path d="M-0.001,-0.236L90.022,-0.236" style="fill:none;fill-rule:nonzero;stroke:rgb(35,31,32);stroke-width:0.83px;"/>
            </g>
            <g transform="matrix(0.0237524,4.1666,4.10484,-0.0241098,1395.23,1077.48)">
                <path d="M-64.003,-64.374L64.748,-64.374" style="fill:none;fill-rule:nonzero;stroke:rgb(35,31,32);stroke-width:0.83px;"/>
            </g>
            <g transform="matrix(-1.85515,-3.71688,-3.66179,1.88306,1087.1,1438.84)">
                <path d="M-46.322,28.46C-20.129,18.493 17.485,28.46 17.485,28.46" style="fill:none;fill-rule:nonzero;stroke:rgb(35,31,32);stroke-width:0.83px;"/>
            </g>
            <g transform="matrix(-1.62784,3.82504,3.76834,1.65234,993.685,1369.84)">
                <path d="M57.19,-2.643C57.19,-2.643 45.021,16.611 57.685,44.857C57.685,44.857 58.281,46.962 57.19,51.694L-17.614,29.233L-18.044,29.048" style="fill:none;fill-rule:nonzero;stroke:rgb(35,31,32);stroke-width:0.83px;"/>
            </g>
            <g transform="matrix(0,-4.16667,-4.10491,0,1046.91,1030.58)">
                <ellipse cx="-17.648" cy="0" rx="16.905" ry="17.648" style="fill:none;stroke:rgb(35,31,32);stroke-width:0.83px;stroke-linecap:butt;"/>
            </g>
            <g transform="matrix(4.10491,0,0,4.16667,962.918,1104.11)">
                <path d="M0,0L82.821,0" style="fill:none;fill-rule:nonzero;stroke:rgb(35,31,32);stroke-width:0.83px;"/>
            </g>
            <g transform="matrix(-3.77719,1.63139,1.60721,3.83402,1099.84,1678.62)">
                <path d="M-7.028,-1.444C-7.299,-1.433 -3.307,-0.11 0.565,-1.444" style="fill:none;fill-rule:nonzero;stroke:rgb(35,31,32);stroke-width:0.83px;"/>
            </g>
            <g transform="matrix(-3.68392,1.83805,1.8108,3.73935,1363.7,1605.49)">
                <path d="M0.72,-66.12C1.348,-65.217 1.657,-63.779 1.74,-63.212C2.198,-60.211 0.651,-42.533 0.72,-41.023C0.785,-39.512 4.995,-28.057 5.835,-23.902C6.614,-20.04 12.239,-5.832 15.426,0.141" style="fill:none;fill-rule:nonzero;stroke:rgb(35,31,32);stroke-width:0.83px;"/>
            </g>
            <g transform="matrix(4.10491,0,0,4.16667,1184.77,1359.57)">
                <path d="M0,-142.358L1.45,-118.412C1.45,-118.412 0.985,-115.194 6.029,-112.851C9.771,-111.11 32.852,-101.397 32.852,-101.397L29.319,-65.016L28.243,-56.606L14.489,-4.199C14.489,-4.199 14.033,-1.834 13.776,0" style="fill:none;fill-rule:nonzero;stroke:rgb(35,31,32);stroke-width:0.83px;"/>
            </g>
            <g transform="matrix(2.56328,-3.25446,-3.20622,-2.60185,1234.09,1687.32)">
                <path d="M-11.918,24.787C14.331,35.168 51.551,24.787 51.551,24.787" style="fill:none;fill-rule:nonzero;stroke:rgb(35,31,32);stroke-width:0.83px;"/>
            </g>
            <g transform="matrix(-4.06147,0.604575,0.595614,4.12257,1123.22,1622.5)">
                <path d="M-43.916,9.319C-43.916,9.319 -26.359,-6.047 1.157,9.319" style="fill:none;fill-rule:nonzero;stroke:rgb(35,31,32);stroke-width:0.83px;"/>
            </g>
            <g transform="matrix(0,4.16667,4.10491,0,1219.94,1030.58)">
                <ellipse cx="17.648" cy="0" rx="16.905" ry="17.648" style="fill:none;stroke:rgb(35,31,32);stroke-width:0.83px;stroke-linecap:butt;"/>
            </g>
            <g transform="matrix(4.10491,0,0,4.16667,1126.44,812.666)">
                <path d="M0,-76.396C-7.225,-76.385 -19.643,-74.838 -23.565,-59.571C-27.486,-44.305 -18.419,-16.24 -18.419,-16.24C-18.419,-16.24 -7.633,-0.482 -1.016,0.012L0.737,-0.073C7.355,-0.565 18.14,-16.322 18.14,-16.322C18.14,-16.322 27.211,-44.39 23.291,-59.653C19.367,-74.919 7.162,-76.408 0,-76.396" style="fill:none;fill-rule:nonzero;stroke:rgb(35,31,32);stroke-width:0.83px;"/>
            </g>
            <g transform="matrix(4.10491,0,0,4.16667,1025.67,654.727)">
                <path d="M0,-12.309C0,-12.309 0.969,-0.492 24.511,-0.246C48.043,0 48.782,-11.819 48.782,-11.819" style="fill:none;fill-rule:nonzero;stroke:rgb(35,31,32);stroke-width:0.83px;"/>
            </g>
            <g transform="matrix(4.10491,0,0,4.16667,1050.83,767.217)">
                <path d="M0,-5.332C0,-5.332 2.943,0.083 17.894,0.083C32.846,0.083 36.559,-5.415 36.559,-5.415" style="fill:none;fill-rule:nonzero;stroke:rgb(35,31,32);stroke-width:0.83px;"/>
            </g>
            <g transform="matrix(4.10491,0,0,4.16667,1077.78,887.239)">
                <path d="M0,-5.167C0,-5.167 5.158,0 12.035,0C25.422,0 27.514,-5.053 27.514,-5.053" style="fill:none;fill-rule:nonzero;stroke:rgb(35,31,32);stroke-width:0.83px;"/>
            </g>
            <g transform="matrix(4.10491,0,0,4.16667,1301.88,1825.3)">
                <path d="M0,-168.696C0,-168.696 1.463,-148.076 2.113,-145.045C2.762,-142.011 6.224,-108.893 5.197,-104.778C4.168,-100.666 5.197,-84.429 5.197,-84.429L12.07,-43.081C12.07,-43.081 13.585,-16.887 13.26,-15.804L13.072,-15.279C11.056,-12.747 11.056,-6.424 9.293,-3.384C7.527,-0.347 9.795,11.039 8.789,21.669C7.782,32.295 14.332,27.741 13.826,22.68C13.324,17.619 15.843,9.518 15.843,9.518C15.843,9.518 18.363,21.92 11.559,31.535C4.755,41.154 10.049,44.444 10.049,44.444C13.072,34.321 17.858,35.84 18.111,32.802C18.363,29.765 21.642,27.741 21.642,23.946C21.642,20.148 25.165,12.558 24.663,11.039C24.157,9.518 23.655,-10.473 23.655,-11.992L23.338,-20.338L23.338,-51.098C23.338,-51.098 25.384,-76.963 25.166,-81.942C24.952,-86.921 23.466,-100.283 23.249,-101.148C23.031,-102.015 17.81,-125.121 18.242,-153.912C18.678,-182.705 15.346,-203.49 12.75,-207.388C10.151,-211.284 4.143,-213.14 4.143,-213.14" style="fill:none;fill-rule:nonzero;stroke:rgb(35,31,32);stroke-width:0.83px;"/>
            </g>
            <g transform="matrix(4.10491,0,0,4.16667,1324.48,1376.15)">
                <path d="M0,1.593C0,1.593 4.942,0 9.056,0.109C13.167,0.216 16.624,1.076 16.624,1.076" style="fill:none;fill-rule:nonzero;stroke:rgb(35,31,32);stroke-width:0.83px;"/>
            </g>
            <g transform="matrix(4.10491,0,0,4.16667,915.612,1344.89)">
                <path d="M0,-1.696C0,-1.696 7.989,-1.972 10.505,-1.485C13.021,-0.998 15.926,0.276 15.926,0.276" style="fill:none;fill-rule:nonzero;stroke:rgb(35,31,32);stroke-width:0.83px;"/>
            </g>
            <g transform="matrix(4.10491,0,0,4.16667,1183.52,1634.37)">
                <path d="M0,242.635C0.07,241.106 3.479,213.149 4.436,206.808C5.866,197.334 8.123,183.903 8.557,179.322C8.989,174.741 9.223,155.91 9.009,154.128C8.789,152.347 10.307,134.537 10.957,131.736C11.606,128.936 24.13,49.412 24.13,49.412C24.13,49.412 29.952,15.842 30.115,0" style="fill:none;fill-rule:nonzero;stroke:rgb(35,31,32);stroke-width:0.83px;"/>
            </g>
            <g transform="matrix(4.10491,0,0,4.16667,1115.62,2639.48)">
                <path d="M0,20.011L3.272,10.989C3.272,10.989 7.253,1.173 7.181,0" style="fill:none;fill-rule:nonzero;stroke:rgb(35,31,32);stroke-width:0.83px;"/>
            </g>
            <g transform="matrix(4.10491,0,0,4.16667,1118.78,2639.48)">
                <path d="M0,-233.693C0,-233.693 -1.528,-213.761 -1.528,-201.801C-1.528,-189.839 1.072,-149.379 1.072,-149.379L0.99,-111.272C0.99,-111.272 -0.094,-87.86 0.99,-83.023C2.073,-78.188 0.316,-71.712 0.1,-68.333C-0.117,-64.957 1.399,-45.105 2.481,-40.015C3.562,-34.927 7.06,-4.838 6.41,0" style="fill:none;fill-rule:nonzero;stroke:rgb(35,31,32);stroke-width:0.83px;"/>
            </g>
            <g transform="matrix(4.10491,0,0,4.16667,1017.79,2296.75)">
                <path d="M0,-23.953C0,-23.953 3.623,-28.96 7.428,-29.314C11.23,-29.66 15.449,-25.579 15.449,-25.579L14.655,-9.336C14.655,-9.336 14.23,-1.988 14.752,-0.895C15.27,0.203 13.469,2.928 9.998,5.707" style="fill:none;fill-rule:nonzero;stroke:rgb(35,31,32);stroke-width:0.83px;"/>
            </g>
            <g transform="matrix(4.10491,0,0,4.16667,1127.63,2300.79)">
                <path d="M0,-24.841L0,-14.786C0,-14.786 1.301,-11.663 1.732,-10.49C2.166,-9.318 3.193,-1.563 8.499,-0.782C13.801,0 18.564,-7.758 18.564,-7.758L19.809,-12.564L21.759,-21.424" style="fill:none;fill-rule:nonzero;stroke:rgb(35,31,32);stroke-width:0.83px;"/>
            </g>
            <g transform="matrix(-4.09268,-0.321374,-0.316611,4.15425,1019.14,1333.33)">
                <path d="M-54.45,2.103L0.081,2.103" style="fill:none;fill-rule:nonzero;stroke:rgb(35,31,32);stroke-width:0.83px;"/>
            </g>
            <g transform="matrix(4.10491,0,0,4.16667,923.12,1072.25)">
                <path d="M0,185.987C-0.274,189.46 -0.536,193.589 -0.331,197.189C0.251,207.384 -5.944,202.786 -5.267,197.963C-4.586,193.146 -6.733,185.3 -6.733,185.3C-6.733,185.3 -9.645,197.062 -3.392,206.521C2.859,215.975 -2.408,218.922 -2.408,218.922C-4.967,209.121 -9.677,210.396 -9.811,207.48C-9.941,204.567 -13.048,202.506 -12.907,198.877C-12.765,195.244 -15.906,187.852 -15.362,186.42C-14.814,184.986 -10.359,164.86 -10.3,163.41C-10.244,161.958 -11.094,159.768 -9.65,154.252L-9.605,154.056C-8.164,148.536 -8.915,120.045 -8.793,116.9C-8.671,113.752 -8.265,100.134 -7.819,95.061C-7.377,89.987 -3.272,76.388 -3.272,76.388C-3.272,76.388 0.349,52.02 -0.541,29.136C-1.015,16.921 -2.148,3.595 -1.839,-2.13C-0.949,-18.579 -1.585,-26.537 2.25,-30.506C3.391,-31.687 4.841,-32.447 6.314,-32.935" style="fill:none;fill-rule:nonzero;stroke:rgb(35,31,32);stroke-width:0.83px;"/>
            </g>
            <g transform="matrix(1.01943,4.03613,3.97631,-1.03477,1085.41,3255.72)">
                <path d="M14.477,-11.077C16.393,-8.013 18.9,3.15 22.645,20.096C20.503,20.645 13.92,21.678 14.477,14.057C16.401,6.277 13.316,0.574 12.164,-5.783C10.729,-13.7 14.477,-11.077 14.477,-11.077Z" style="fill:none;fill-rule:nonzero;stroke:rgb(35,31,32);stroke-width:0.83px;stroke-miterlimit:10;"/>
            </g>
            <g transform="matrix(-0.54957,4.12916,4.06795,0.557839,1193.26,3222.75)">
                <path d="M-32.176,-29.355C-6.541,-24.636 19.44,-27.626 25.823,-29.355" style="fill:none;fill-rule:nonzero;stroke:rgb(35,31,32);stroke-width:0.83px;stroke-miterlimit:10;"/>
            </g>
            <g transform="matrix(0.346141,4.15183,4.09029,-0.351349,1293.45,3173.07)">
                <path d="M-26.409,-28.738C-26.409,-28.738 27.544,-30.167 31.273,-28.738" style="fill:none;fill-rule:nonzero;stroke:rgb(35,31,32);stroke-width:0.83px;stroke-miterlimit:10;"/>
            </g>
            <g transform="matrix(4.10491,0,0,4.16667,1133.94,2836.96)">
                <path d="M0,13.843C5.834,13.843 9.373,7.853 16.208,5.371C21.607,3.41 19.629,0 19.629,0" style="fill:none;fill-rule:nonzero;stroke:rgb(35,31,32);stroke-width:0.83px;stroke-miterlimit:10;"/>
            </g>
            <g transform="matrix(0.665127,4.11161,4.05066,-0.675135,1289.64,2710.1)">
                <path d="M-19.525,-22.993C10.877,-24.626 20.647,-24.541 27.076,-22.993" style="fill:none;fill-rule:nonzero;stroke:rgb(35,31,32);stroke-width:0.83px;stroke-miterlimit:10;"/>
            </g>
        </g>
        <g transform="matrix(0.985177,0,0,1,646.341,-99.7806)">
            <g transform="matrix(4.16667,0,0,4.16667,2212.4,775.527)">
                <path d="M0,38.623C0,38.623 -23.218,28.851 -26.824,26.853C-30.427,24.852 -31.106,21.966 -31.106,21.966L-30.979,0" style="fill:none;fill-rule:nonzero;stroke:rgb(35,31,32);stroke-width:0.83px;"/>
            </g>
            <g transform="matrix(4.16667,0,0,4.16667,2182.36,1220.61)">
                <path d="M0,40.931C-3.303,36.852 -6.41,33.072 -7.48,31.88C-7.48,31.88 -9.038,30.158 -9.369,29.468C-10.168,27.807 -6.579,13.413 -2.954,0" style="fill:none;fill-rule:nonzero;stroke:rgb(35,31,32);stroke-width:0.83px;"/>
            </g>
            <g transform="matrix(4.16667,0,0,4.16667,2043.02,1675.35)">
                <path d="M0,251.92C0.063,246.744 0,230.776 0,224.254L0.106,213.463C-0.511,186.8 1.75,181.503 2.84,170.908C3.684,162.66 2.185,137.548 2.218,136.521C2.348,132.228 3.388,121.678 3.826,115.107C4.264,108.545 3.969,25.791 8.951,0" style="fill:none;fill-rule:nonzero;stroke:rgb(35,31,32);stroke-width:0.83px;"/>
            </g>
            <g transform="matrix(4.16667,0,0,4.16667,2239.78,2983.47)">
                <path d="M0,-272.384C-3.588,-255.437 -7.483,-240.011 -10.711,-227.923C-15.254,-210.929 -19.247,-190.598 -20.635,-175.153C-21.336,-167.298 -21.592,-160.848 -21.467,-157.081C-21.094,-145.894 -20.765,-117.532 -21.678,-103.253L-30.015,-59.895C-30.015,-59.895 -40.634,-16.332 -40.302,0" style="fill:none;fill-rule:nonzero;stroke:rgb(35,31,32);stroke-width:0.83px;"/>
            </g>
            <g transform="matrix(4.16667,0,0,4.16667,2182.36,1528.65)">
                <path d="M0,-33C-0.253,-37.66 -0.477,-37.518 -0.273,-39.871C0.066,-43.761 -2.63,-75.127 -2.63,-75.127C-2.63,-75.127 2.586,-130.697 3.247,-133.295C3.907,-135.893 5.176,-141.269 7.464,-142.15C8.913,-142.708 10.386,-140.901 11.529,-139.72C15.364,-135.751 14.727,-127.794 15.619,-111.344C15.926,-105.618 14.794,-92.293 14.319,-80.077C13.427,-57.194 17.052,-32.824 17.052,-32.824C17.052,-32.824 21.155,-19.227 21.598,-14.153C22.043,-9.081 22.451,4.539 22.573,7.686C22.696,10.83 21.943,39.323 23.386,44.842L23.429,45.038C24.87,50.553 24.022,52.743 24.079,54.195C24.136,55.646 28.593,75.772 29.141,77.207C29.686,78.638 26.543,86.031 26.685,89.664C26.827,93.292 23.719,95.353 23.589,98.266C23.456,101.182 18.747,99.906 16.187,109.708C16.187,109.708 10.921,106.759 17.171,97.306C23.424,87.849 20.511,76.086 20.511,76.086C20.511,76.086 18.364,83.931 19.045,88.749C19.724,93.572 13.527,98.171 14.11,87.975C14.316,84.374 14.053,80.247 13.779,76.772" style="fill:none;fill-rule:nonzero;stroke:rgb(35,31,32);stroke-width:0.83px;"/>
            </g>
            <g transform="matrix(4.15346,-0.331431,-0.331431,-4.15346,1872.17,1467.34)">
                <path d="M-0.121,3.039L76.29,3.039" style="fill:none;fill-rule:nonzero;stroke:rgb(35,31,32);stroke-width:0.83px;"/>
            </g>
            <g transform="matrix(-4.16661,0.0218932,0.0218932,4.16661,1837.32,939.412)">
                <path d="M-90.02,-0.237L0.001,-0.237" style="fill:none;fill-rule:nonzero;stroke:rgb(35,31,32);stroke-width:0.83px;"/>
            </g>
            <g transform="matrix(-0.0194452,4.16662,4.16662,0.0194452,2324.57,1056.96)">
                <path d="M-71.364,-71.032L70.701,-71.032" style="fill:none;fill-rule:nonzero;stroke:rgb(35,31,32);stroke-width:0.83px;"/>
            </g>
            <g transform="matrix(4.16667,0,0,4.16667,2091.89,1359.56)">
                <path d="M0,73.533C0,73.533 -1.697,74.914 -6.475,75.788L-15.518,-1.789L-15.518,-2.255" style="fill:none;fill-rule:nonzero;stroke:rgb(35,31,32);stroke-width:0.83px;"/>
            </g>
            <g transform="matrix(-4.16667,0,0,4.16667,1854.29,1105.45)">
                <path d="M-78.636,0L0,0" style="fill:none;fill-rule:nonzero;stroke:rgb(35,31,32);stroke-width:0.83px;"/>
            </g>
            <g transform="matrix(4.16667,0,0,4.16667,2096.12,908.248)">
                <path d="M0,105.31C0,105.31 2.805,71.164 4.383,47.107C5.962,23.052 12.071,0 12.071,0" style="fill:none;fill-rule:nonzero;stroke:rgb(35,31,32);stroke-width:0.83px;"/>
            </g>
            <g transform="matrix(4.16667,0,0,4.16667,2096.12,1654.01)">
                <path d="M0,-73.672L8.713,-52.865L20.912,-12.427C20.912,-12.427 23.292,-3.831 19.814,0" style="fill:none;fill-rule:nonzero;stroke:rgb(35,31,32);stroke-width:0.83px;"/>
            </g>
            <g transform="matrix(-3.73928,-1.83818,-1.83818,3.73928,1792.56,1606.83)">
                <path d="M-0.719,-66.118C-1.347,-65.215 -1.655,-63.779 -1.739,-63.212C-2.196,-60.21 -0.649,-42.532 -0.719,-41.021C-0.784,-39.512 -4.996,-28.058 -5.834,-23.902C-6.614,-20.039 -12.24,-5.832 -15.425,0.142" style="fill:none;fill-rule:nonzero;stroke:rgb(35,31,32);stroke-width:0.83px;"/>
            </g>
            <g transform="matrix(4.16667,0,0,4.16667,1973.71,1360.91)">
                <path d="M0,-141.812L-1.334,-118.412C-1.334,-118.412 -0.869,-115.194 -5.914,-112.851C-9.655,-111.111 -32.734,-101.396 -32.734,-101.396L-29.205,-65.016L-28.125,-56.606L-14.374,-4.2C-14.374,-4.2 -13.917,-1.833 -13.662,0" style="fill:none;fill-rule:nonzero;stroke:rgb(35,31,32);stroke-width:0.83px;"/>
            </g>
            <g transform="matrix(4.16667,0,0,4.16667,2082.79,888.582)">
                <path d="M0,-5.167C0,-5.167 -5.156,0 -12.034,0C-25.422,0 -27.512,-5.053 -27.512,-5.053" style="fill:none;fill-rule:nonzero;stroke:rgb(35,31,32);stroke-width:0.83px;"/>
            </g>
            <g transform="matrix(4.16667,0,0,4.16667,1855.31,1826.63)">
                <path d="M0,-168.693C0,-168.693 -1.461,-148.073 -2.111,-145.043C-2.759,-142.009 -6.223,-108.891 -5.194,-104.776C-4.166,-100.663 -5.194,-84.427 -5.194,-84.427L-12.067,-43.079C-12.067,-43.079 -13.583,-16.886 -13.257,-15.803L-13.069,-15.277C-11.054,-12.745 -11.054,-6.421 -9.291,-3.383C-7.525,-0.345 -9.795,11.04 -8.788,21.672C-7.781,32.298 -14.33,27.743 -13.824,22.682C-13.323,17.621 -15.841,9.521 -15.841,9.521C-15.841,9.521 -18.361,21.921 -11.557,31.537C-4.754,41.156 -10.047,44.446 -10.047,44.446C-13.069,34.325 -17.856,35.842 -18.11,32.805C-18.361,29.767 -21.636,27.743 -21.636,23.949C-21.636,20.15 -25.163,12.559 -24.66,11.04C-24.155,9.521 -23.653,-10.47 -23.653,-11.988L-23.335,-20.336L-23.335,-51.096C-23.335,-51.096 -25.383,-76.962 -25.165,-81.94C-24.949,-86.92 -23.464,-100.281 -23.247,-101.147C-23.029,-102.013 -17.808,-125.119 -18.24,-153.911C-18.674,-182.701 -15.344,-203.489 -12.747,-207.386C-10.149,-211.283 -4.143,-213.139 -4.143,-213.139" style="fill:none;fill-rule:nonzero;stroke:rgb(35,31,32);stroke-width:0.83px;"/>
            </g>
            <g transform="matrix(4.16667,0,0,4.16667,1832.39,1377.49)">
                <path d="M0,1.594C0,1.594 -4.943,0 -9.059,0.111C-13.171,0.217 -16.628,1.076 -16.628,1.076" style="fill:none;fill-rule:nonzero;stroke:rgb(35,31,32);stroke-width:0.83px;"/>
            </g>
            <g transform="matrix(4.16667,0,0,4.16667,2247.39,1346.24)">
                <path d="M0,-1.697C0,-1.697 -7.986,-1.972 -10.503,-1.487C-13.021,-0.999 -15.926,0.275 -15.926,0.275" style="fill:none;fill-rule:nonzero;stroke:rgb(35,31,32);stroke-width:0.83px;"/>
            </g>
            <g transform="matrix(4.16667,0,0,4.16667,1966.36,1635.71)">
                <path d="M0,232.541C0,232.541 -5.937,183.904 -6.369,179.323C-6.802,174.741 -7.038,155.911 -6.822,154.129C-6.604,152.348 -8.12,134.535 -8.771,131.735C-9.42,128.935 -21.945,49.41 -21.945,49.41C-21.945,49.41 -27.766,15.841 -27.93,0" style="fill:none;fill-rule:nonzero;stroke:rgb(35,31,32);stroke-width:0.83px;"/>
            </g>
            <g transform="matrix(4.16667,0,0,4.16667,2042.25,2601.35)">
                <path d="M0,-220.74C0,-220.74 1.272,-204.287 1.272,-192.327C1.272,-180.366 -1.33,-139.906 -1.33,-139.906L-1.25,-101.8C-1.25,-101.8 -0.505,-76.864 -1.59,-72.029C-2.674,-67.193 -1.806,-58.684 -1.59,-55.306C-1.375,-51.928 -1.655,-35.632 -2.739,-30.544C-3.819,-25.454 -4.983,-4.839 -4.333,0" style="fill:none;fill-rule:nonzero;stroke:rgb(35,31,32);stroke-width:0.83px;"/>
            </g>
            <g transform="matrix(4.16667,0,0,4.16667,1957.85,909.063)">
                <path d="M0,107.508C-0.321,103.57 -3.037,69.796 -4.517,47.186C-6.096,23.131 -12.281,0 -12.281,0" style="fill:none;fill-rule:nonzero;stroke:rgb(35,31,32);stroke-width:0.83px;"/>
            </g>
            <g transform="matrix(4.16667,0,0,4.16667,1957.85,1690.83)">
                <path d="M0,-80.115C0.023,-79.862 -4.847,-57.955 -4.847,-57.955C-4.847,-57.955 -5.98,-37.784 -7.948,-16.076C-7.948,-16.076 -9.125,-2.688 -3.509,0" style="fill:none;fill-rule:nonzero;stroke:rgb(35,31,32);stroke-width:0.83px;"/>
            </g>
            <g transform="matrix(4.15425,-0.321444,-0.321444,-4.15425,1917.8,1369.63)">
                <path d="M-0.081,2.104L54.451,2.104" style="fill:none;fill-rule:nonzero;stroke:rgb(35,31,32);stroke-width:0.83px;"/>
            </g>
            <g transform="matrix(2.13691,-3.57697,-3.57697,-2.13691,2195.92,1668.28)">
                <path d="M-12.325,21.72C3.261,13.225 25.768,18.234 38.277,21.72" style="fill:none;fill-rule:nonzero;stroke:rgb(35,31,32);stroke-width:0.83px;"/>
            </g>
            <g transform="matrix(3.9535,-1.31567,-1.31567,-3.9535,2082.56,1698.47)">
                <path d="M-0.593,6.412C-0.593,6.412 16.327,-2.276 40.492,6.412" style="fill:none;fill-rule:nonzero;stroke:rgb(35,31,32);stroke-width:0.83px;"/>
            </g>
            <g transform="matrix(4.16667,0,0,4.16667,1870.66,1675.35)">
                <path d="M0,-52.545C0,-52.545 13.689,-14.635 42.454,-1.139C42.454,-1.139 44.892,-0.136 46.621,0" style="fill:none;fill-rule:nonzero;stroke:rgb(35,31,32);stroke-width:0.83px;"/>
            </g>
            <g transform="matrix(-4.09679,-0.7599,-0.7599,4.09679,1849.39,1680.76)">
                <path d="M-49.002,-10.657C-49.002,-10.657 -25.179,9.447 1.833,-10.657" style="fill:none;fill-rule:nonzero;stroke:rgb(35,31,32);stroke-width:0.83px;"/>
            </g>
            <g transform="matrix(4.16306,-0.173414,-0.173414,-4.16306,2076.12,2248.36)">
                <path d="M0.089,0.306C0.089,0.306 7.762,-4.609 14.866,0.306" style="fill:none;fill-rule:nonzero;stroke:rgb(35,31,32);stroke-width:0.83px;"/>
            </g>
            <g transform="matrix(-4.07907,0.849863,0.849863,4.07907,1936.07,2254.9)">
                <path d="M-23.537,7.596C-23.537,7.596 -11.155,-5.441 1.305,7.596" style="fill:none;fill-rule:nonzero;stroke:rgb(35,31,32);stroke-width:0.83px;"/>
            </g>
            <g transform="matrix(4.16667,0,0,4.16667,2182.36,1848.53)">
                <path d="M0,-109.772C0.532,-104.725 2.439,-94.351 2.439,-94.351L12.739,-53.72C12.739,-53.72 16.434,-27.744 16.202,-26.637L16.055,-26.097C14.258,-23.408 14.786,-17.105 13.283,-13.928C12.639,-12.568 13.325,-3.625 13.779,0" style="fill:none;fill-rule:nonzero;stroke:rgb(35,31,32);stroke-width:0.83px;"/>
            </g>
            <g transform="matrix(4.16667,0,0,4.16667,2083.32,494.48)">
                <path d="M0,67.451C3.412,63.54 5.719,60.086 5.719,60.086C5.719,60.086 14.79,32.018 10.869,16.756C6.944,1.489 -5.26,0 -12.422,0.013" style="fill:none;fill-rule:nonzero;stroke:rgb(35,31,32);stroke-width:0.83px;"/>
            </g>
            <g transform="matrix(4.16667,0,0,4.16667,2031.56,770.375)">
                <path d="M0,-66.202C-7.226,-66.191 -19.643,-64.644 -23.565,-49.377C-27.487,-34.111 -18.419,-6.046 -18.419,-6.046C-18.419,-6.046 -16.725,-3.395 -13.888,0" style="fill:none;fill-rule:nonzero;stroke:rgb(35,31,32);stroke-width:0.83px;"/>
            </g>
            <g transform="matrix(4.16667,0,0,4.16667,1973.71,763.437)">
                <path d="M0,1.582C0,1.582 4.71,-1.319 12.897,-1.262C21.084,-1.205 26.305,2.901 26.305,2.901" style="fill:none;fill-rule:nonzero;stroke:rgb(35,31,32);stroke-width:0.83px;"/>
            </g>
            <g transform="matrix(4.16667,0,0,4.16667,1981.32,3329.4)">
                <path d="M0,-30.142C-0.438,-28.254 -2.813,-14.431 -4.47,-5.856C-5.033,-2.943 -2.869,-0.214 0.097,-0.102C2.845,0 6.628,-1.137 10.923,-1.225C13.869,-1.285 16.936,-0.257 20.548,-0.372C23.956,-0.48 26.477,-3.59 25.869,-6.946C24.709,-13.349 22.688,-21.03 23.261,-25.788" style="fill:none;fill-rule:nonzero;stroke:rgb(35,31,32);stroke-width:0.83px;stroke-miterlimit:10;"/>
            </g>
            <g transform="matrix(-1.60366,3.8457,3.8457,1.60366,2026.27,3160.01)">
                <path d="M-7.475,-4.982C-3.914,-4.353 -0.242,-4.353 3.32,-4.982" style="fill:none;fill-rule:nonzero;stroke:rgb(35,31,32);stroke-width:0.83px;stroke-miterlimit:10;"/>
            </g>
            <g transform="matrix(4.16667,0,0,4.16667,2024.29,3231.73)">
                <path d="M0,-84.621C0.144,-81.379 -4.397,-46.853 -4.657,-44.829C-4.558,-41.634 -5.465,-33.554 -6.394,-26.516L-6.476,-25.896C-7.022,-24.64 -8.701,-22.68 -8.581,-21.315C-8.502,-20.417 -8.434,-16.251 -8.422,-15.017C-8.422,-15.017 -9.235,-10.494 -9.716,-9.265C-11.092,-6.156 -9.961,-3.812 -7.605,-1.455C-6.15,0 -0.877,-0.244 -0.877,-0.244L8.679,-0.244C8.679,-0.244 12.073,-0.169 12.949,-2.348C14.087,-5.181 13.17,-11.161 11.52,-16.883C10.154,-21.613 12.359,-50.646 12.359,-50.646L11.677,-54.529C11.591,-54.897 11.531,-56.176 11.495,-58.192L11.417,-59.582" style="fill:none;fill-rule:nonzero;stroke:rgb(35,31,32);stroke-width:0.83px;stroke-miterlimit:10;"/>
            </g>
            <g transform="matrix(4.16667,0,0,4.16667,2027.89,2782.5)">
                <path d="M0,-22.127C0,-22.127 6.801,-38.454 -1.088,-43.616C-8.977,-48.778 -15.652,-42.978 -16.889,-39.793C-18.126,-36.606 -15.836,-23.328 -15.925,-18.771C-16.015,-14.214 -16.729,1.047 -14.799,9.381C-13.813,13.633 -14.983,16.258 -9.044,18.791C-3.106,21.325 3.52,26.607 7.258,26.629C10.996,26.651 13.12,22.581 13.473,21.5C13.826,20.419 14.723,-2.176 8.109,-7.725C-0.475,-14.927 2.088,-28.434 2.088,-28.434" style="fill:none;fill-rule:nonzero;stroke:rgb(35,31,32);stroke-width:0.83px;"/>
            </g>
        </g>
    </g>
</svg>
